<?xml version="1.0" encoding="utf-8"?>
<!-- Generator: Adobe Illustrator 23.1.0, SVG Export Plug-In . SVG Version: 6.00 Build 0)  -->
<svg version="1.1" id="图层_1" xmlns="http://www.w3.org/2000/svg" xmlns:xlink="http://www.w3.org/1999/xlink" x="0px" y="0px"
	 viewBox="0 0 200 200" style="enable-background:new 0 0 200 200;" xml:space="preserve">
<style type="text/css">
	.st0{fill:#FFFFFF;}
</style>
<path class="st0" d="M183.8,16.3c5,5,5,12.5,0,16.3L116.3,100l67.5,67.5c5,5,5,12.5,0,16.3c-5,5-12.5,5-16.3,0L100,116.3l-67.5,67.5
	c-5,5-12.5,5-16.3,0c-5-5-5-12.5,0-16.3L83.8,100L16.3,32.5c-5-5-5-12.5,0-16.3s12.5-5,16.3,0L100,83.8l67.5-67.5
	C171.3,11.3,180,11.3,183.8,16.3z"/>
</svg>
