<?xml version="1.0" encoding="utf-8"?>
<!-- Generator: Adobe Illustrator 23.1.0, SVG Export Plug-In . SVG Version: 6.00 Build 0)  -->
<svg version="1.1" id="图层_1" xmlns="http://www.w3.org/2000/svg" xmlns:xlink="http://www.w3.org/1999/xlink" x="0px" y="0px"
	 viewBox="0 0 200 200" style="enable-background:new 0 0 200 200;" xml:space="preserve">
<style type="text/css">
	.st0{fill:#FFFFFF;}
</style>
<path class="st0" d="M113.3,100c-2.3,0-4.6,2.1-4.6,4.7c0,2.1,2.3,4.2,4.6,4.2c3.4,0,5.9-2.1,5.9-4.2
	C119.1,102.1,116.7,100,113.3,100C113.3,100,113.3,100,113.3,100z M98.3,78c3.6,0,5.9-2.3,5.9-5.7c0-3.6-2.3-5.7-5.9-5.7
	c-3.4,0-6.7,2.1-6.7,5.7C91.6,75.7,94.9,78,98.3,78C98.3,78,98.3,78,98.3,78z M0,0.1C-88,0.1-81,200,0.1,200c55.2,0,127.5,0,199.9,0
	c0-55.2,0-147,0-199.9H0 M81.2,125.4c-6,0-10.4-1-16.1-2.6l-16.4,8.3l4.7-14c-11.6-8.1-18.4-18.4-18.4-30.9
	c0-22.1,20.8-39.1,46.3-39.1c22.5,0,42.5,13.4,46.4,32.2c-1.6-0.3-3.1-0.5-4.4-0.5c-22.1,0-39.2,16.6-39.2,36.6
	c0,3.4,0.5,6.5,1.3,9.8C83.9,125.4,82.5,125.4,81.2,125.4L81.2,125.4L81.2,125.4z M149.1,141.4l3.3,11.7l-12.4-7
	c-4.7,1-9.3,2.4-14,2.4c-21.8,0-39.1-15-39.1-33.5s17.3-33.5,39.1-33.5c20.7,0,39.2,15,39.2,33.5
	C165.2,125.4,158.2,134.7,149.1,141.4L149.1,141.4L149.1,141.4z M66,66.6c-3.4,0-7,2.1-7,5.7c0,3.4,3.6,5.7,7,5.7
	c3.3,0,5.9-2.3,5.9-5.7C71.9,68.7,69.3,66.6,66,66.6L66,66.6z M138.8,100c-2.4,0-4.6,2.1-4.6,4.7c0,2.1,2.1,4.2,4.6,4.2
	c3.3,0,5.7-2.1,5.7-4.2C144.5,102.1,142.1,100,138.8,100z"/>
</svg>
