<?xml version="1.0" encoding="utf-8"?>
<!-- Generator: Adobe Illustrator 23.1.0, SVG Export Plug-In . SVG Version: 6.00 Build 0)  -->
<svg version="1.1" id="图层_1" xmlns="http://www.w3.org/2000/svg" xmlns:xlink="http://www.w3.org/1999/xlink" x="0px" y="0px"
	 viewBox="0 0 200 200" style="enable-background:new 0 0 200 200;" xml:space="preserve">
<style type="text/css">
	.st0{fill:#FFFFFF;}
</style>
<path class="st0" d="M181.3,0H18.8C8.4,0,0,8.4,0,18.8v162.5C0,191.6,8.4,200,18.8,200h162.5c10.3,0,18.8-8.4,18.8-18.8V18.8
	C200,8.4,191.6,0,181.3,0z M54.5,162.3c-9.4,0-17-7.5-17-16.9c0,0,0,0,0,0c0.3-9.4,8.1-16.8,17.5-16.5c9,0.2,16.3,7.5,16.5,16.5
	C71.5,154.8,63.9,162.4,54.5,162.3C54.5,162.3,54.5,162.3,54.5,162.3L54.5,162.3z M97.2,162.5c0.1-15.9-6.2-31.1-17.5-42.3
	c-11.2-11.2-26.4-17.5-42.2-17.5V78.3c46.4,0,84.2,37.8,84.2,84.2L97.2,162.5L97.2,162.5z M140.5,162.5c0-56.8-46.2-103.1-103-103.1
	V34.9c70.3,0,127.5,57.3,127.5,127.6L140.5,162.5L140.5,162.5z"/>
</svg>
