<?xml version="1.0" encoding="utf-8"?>
<!-- Generator: Adobe Illustrator 23.1.0, SVG Export Plug-In . SVG Version: 6.00 Build 0)  -->
<svg version="1.1" id="图层_1" xmlns="http://www.w3.org/2000/svg" xmlns:xlink="http://www.w3.org/1999/xlink" x="0px" y="0px"
	 viewBox="0 0 200 200" style="enable-background:new 0 0 200 200;" xml:space="preserve">
<style type="text/css">
	.st0{fill:#FFFFFF;}
</style>
<path class="st0" d="M200,17c0-11.4-4.6-17-16-17H13.8C2.5,0,0,4.3,0,15.7V186c0,11.4,2.6,14,14,14h179c11.4,0,7-5.6,7-17V17z
	 M153.2,75.2c0.1,1.1,0.1,2.2,0.1,3.3c0,34.1-26,73.5-73.5,73.5c-14.6,0-28.1-4.3-39.6-11.6c2,0.2,4.2,0.4,6.3,0.4
	c12.1,0,23.4-4.1,32.3-11.1c-11.3-0.2-20.4-7.7-23.7-17.9c1.6,0.3,4,0.5,5.7,0.5c2.4,0,3.7-0.3,5.9-0.9c-11.8-2.4-20-12.8-20-25.3
	c0-0.1,0-0.2,0-0.3c0,1.9,6.8,3.1,11,3.2c-6.9-4.6-13.4-12.5-13.4-21.5c0-4.7,1.9-9.2,4.1-13C61,70,80.4,80.3,101.9,81.4
	c-0.4-1.9-0.5-3.9-0.5-5.9c0-14.3,11.6-25.8,25.9-25.8c7.4,0,14.2,3.1,18.9,8.2c5.9-1.2,11.4-3.3,16.4-6.3c-1.9,6-6,11.1-11.3,14.3
	c5.2-0.6,7.1-2,11.7-4.1c0,0-3.1,0-3.1,0v0c0,0,3.1,0,3.1,0C159.5,67,158.2,71.5,153.2,75.2z"/>
</svg>
