<?xml version="1.0" encoding="utf-8"?>
<!-- Generator: Adobe Illustrator 23.1.0, SVG Export Plug-In . SVG Version: 6.00 Build 0)  -->
<svg version="1.1" id="图层_1" xmlns="http://www.w3.org/2000/svg" xmlns:xlink="http://www.w3.org/1999/xlink" x="0px" y="0px"
	 viewBox="0 0 200 200" style="enable-background:new 0 0 200 200;" xml:space="preserve">
<style type="text/css">
	.st0{fill:#FFFFFF;}
</style>
<path class="st0" d="M133.3,8.3H66.7c-13.8,0-25,11.2-25,25l0,0v133.3c0,13.8,11.2,25,25,25h66.7c13.8,0,25-11.2,25-25V33.3
	C158.3,19.5,147.1,8.3,133.3,8.3z M133.3,175H66.7c-4.6,0-8.3-3.7-8.3-8.3l0,0V33.3c0-4.6,3.7-8.3,8.3-8.3s8.3,3.7,8.3,8.3
	s3.7,8.3,8.3,8.3h33.3c4.6,0,8.3-3.7,8.3-8.3l0,0c0-4.6,3.7-8.3,8.3-8.3l0,0c4.6,0,8.3,3.7,8.3,8.3l0,0v133.3
	C141.7,171.3,137.9,175,133.3,175C133.3,175,133.3,175,133.3,175L133.3,175z"/>
</svg>
