<?xml version="1.0" encoding="utf-8"?>
<!-- Generator: Adobe Illustrator 23.1.0, SVG Export Plug-In . SVG Version: 6.00 Build 0)  -->
<svg version="1.1" id="图层_1" xmlns="http://www.w3.org/2000/svg" xmlns:xlink="http://www.w3.org/1999/xlink" x="0px" y="0px"
	 viewBox="0 0 24 24" style="enable-background:new 0 0 24 24;" xml:space="preserve">
<style type="text/css">
	.st0{fill:#FFFFFF;}
</style>
<title>Sina Weibo icon</title>
<path class="st0" d="M10.1,20.3c-4,0.4-7.4-1.4-7.7-4c-0.3-2.6,2.8-5,6.7-5.4c4-0.4,7.4,1.4,7.7,4C17.1,17.5,14.1,19.9,10.1,20.3
	C10.1,20.3,10.1,20.3,10.1,20.3z M9.1,17.2c-0.4,0.6-1.2,0.9-1.8,0.6c-0.6-0.3-0.8-1-0.4-1.6c0.4-0.6,1.2-0.9,1.8-0.6
	C9.2,15.9,9.4,16.6,9.1,17.2z M10.3,15.6c-0.1,0.2-0.4,0.4-0.7,0.3c-0.2-0.1-0.3-0.4-0.2-0.6c0.1-0.2,0.4-0.3,0.7-0.2
	C10.4,15.1,10.4,15.4,10.3,15.6L10.3,15.6z M10.5,12.9c-1.9-0.5-4,0.4-4.9,2.1c-0.8,1.7,0,3.6,1.9,4.2c2,0.6,4.3-0.3,5.1-2.2
	C13.5,15.2,12.5,13.4,10.5,12.9z M18.1,11.6c-0.3-0.1-0.6-0.2-0.4-0.6c0.4-1,0.4-1.8,0-2.4c-0.8-1.1-2.9-1.1-5.4,0
	c0,0-0.8,0.3-0.6-0.3c0.4-1.2,0.3-2.2-0.3-2.8c-1.3-1.3-4.9,0-7.9,3.1C1.3,10.9,0,13.3,0,15.3c0,4,5.1,6.4,10.1,6.4
	c6.5,0,10.9-3.8,10.9-6.8C21,13.1,19.4,12.1,18.1,11.6C18.1,11.6,18.1,11.6,18.1,11.6z M20,6.6c-0.8-0.9-1.9-1.2-3-1
	c-0.4,0.1-0.7,0.5-0.6,0.9c0.1,0.4,0.5,0.7,0.9,0.6c0.5-0.1,1.1,0,1.4,0.5c0.4,0.4,0.5,1,0.3,1.5c-0.1,0.4,0.1,0.9,0.5,1
	c0.4,0.1,0.9-0.1,1-0.5C20.9,8.5,20.7,7.4,20,6.6C19.9,6.5,20,6.6,20,6.6z M22.4,4.4c-1.6-1.8-3.9-2.4-6.1-2
	c-0.5,0.1-0.8,0.6-0.7,1.1c0.1,0.5,0.6,0.8,1.1,0.7c1.5-0.3,3.2,0.2,4.3,1.4c1.1,1.2,1.4,2.9,0.9,4.4c-0.2,0.5,0.1,1,0.6,1.2
	c0.5,0.2,1-0.1,1.2-0.6C24.4,8.5,23.9,6.1,22.4,4.4C22.4,4.3,22.4,4.4,22.4,4.4z"/>
</svg>
