<?xml version="1.0" encoding="utf-8"?>
<!-- Generator: Adobe Illustrator 23.1.0, SVG Export Plug-In . SVG Version: 6.00 Build 0)  -->
<svg version="1.1" id="图层_1" xmlns="http://www.w3.org/2000/svg" xmlns:xlink="http://www.w3.org/1999/xlink" x="0px" y="0px"
	 viewBox="0 0 24 24" style="enable-background:new 0 0 24 24;" xml:space="preserve">
<style type="text/css">
	.st0{fill:#FFFFFF;}
</style>
<title>WeChat icon</title>
<path class="st0" d="M23.5,12.7c-0.6-1.4-1.8-2.5-3.1-3.2c-2.4-1.2-5.3-1.2-7.6,0c-1.6,0.8-3,2.3-3.4,4.2c-0.3,1.3,0,2.8,0.7,4
	c1.1,1.8,3,2.9,5,3.2c1.4,0.3,2.9,0.1,4.3-0.3c0.8,0.3,1.6,0.9,2.4,1.2c-0.2-0.7-0.4-1.4-0.7-2.1c0.9-0.6,1.7-1.5,2.2-2.5
	C24.1,16,24.2,14.2,23.5,12.7z M13.6,3.3C11.1,1.9,8,1.7,5.3,2.6C3.6,3.3,2,4.5,1,6.1C0.1,7.5-0.2,9.3,0.2,11
	c0.4,1.8,1.7,3.4,3.3,4.4c-0.3,0.8-0.6,1.7-0.9,2.6c1-0.5,2-1,2.9-1.6c1.2,0.4,2.4,0.6,3.7,0.5c-0.3-0.9-0.4-2-0.3-3
	c0.2-1.4,1-2.6,2-3.6c1.7-1.6,4.2-2.3,6.5-2.1C17,6.1,15.5,4.3,13.6,3.3L13.6,3.3L13.6,3.3z M15.4,13.3c-0.2,0.7-1.2,0.8-1.6,0.4
	c-0.5-0.5-0.3-1.4,0.4-1.6C14.8,11.7,15.7,12.5,15.4,13.3z M20.1,13.4c-0.3,0.6-1.1,0.7-1.6,0.3c-0.2-0.2-0.3-0.5-0.3-0.7
	c0.1-0.5,0.4-0.9,0.9-1C19.9,11.8,20.5,12.7,20.1,13.4L20.1,13.4L20.1,13.4z M13,6.9c0,1-1.3,1.6-2,0.9c-0.7-0.5-0.5-1.8,0.3-2.1
	C12.1,5.4,13.1,6.1,13,6.9L13,6.9z M6.9,7.2C6.8,8,5.6,8.4,5,7.8C4.2,7.3,4.4,6,5.3,5.7C6.2,5.4,7.2,6.2,6.9,7.2z"/>
</svg>
