<?xml version="1.0" encoding="utf-8"?>
<!-- Generator: Adobe Illustrator 23.1.0, SVG Export Plug-In . SVG Version: 6.00 Build 0)  -->
<svg version="1.1" id="图层_1" xmlns="http://www.w3.org/2000/svg" xmlns:xlink="http://www.w3.org/1999/xlink" x="0px" y="0px"
	 viewBox="0 0 200 200" style="enable-background:new 0 0 200 200;" xml:space="preserve">
<style type="text/css">
	.st0{fill:#FFFFFF;}
</style>
<path class="st0" d="M7.9,7.9C11.8,4,18.2,4,22.1,7.9l77.8,77.8l77.8-77.8c4-3.8,10.3-3.7,14.1,0.2c3.7,3.9,3.7,10,0,13.9L114,99.8
	l77.8,77.8c3.7,3.7,3.9,9.5,0.6,13.5l-0.6,0.6c-3.9,3.9-10.2,3.9-14.1,0L99.8,114l-77.8,77.8c-4,3.8-10.3,3.7-14.1-0.2
	c-3.7-3.9-3.7-10,0-13.9l77.8-77.8L7.9,22.1C4.3,18.4,4,12.5,7.3,8.6L7.9,7.9z"/>
</svg>
