<?xml version="1.0" encoding="utf-8"?>
<!-- Generator: Adobe Illustrator 23.1.0, SVG Export Plug-In . SVG Version: 6.00 Build 0)  -->
<svg version="1.1" id="图层_1" xmlns="http://www.w3.org/2000/svg" xmlns:xlink="http://www.w3.org/1999/xlink" x="0px" y="0px"
	 viewBox="0 0 200 200" style="enable-background:new 0 0 200 200;" xml:space="preserve">
<style type="text/css">
	.st0{fill:#FFFFFF;}
</style>
<path d="M85.7,92.3c-24.6,1.1-44.5,14.3-44.5,30.8c0,16.4,19.9,28.8,44.5,27.6c24.6-1.1,44.6-16.5,44.6-33
	C130.3,101.3,110.3,91.2,85.7,92.3L85.7,92.3z M102.5,133.7c-7.5,9.7-22.4,14.5-36.9,6.6c-6.9-3.7-6.6-11.1-6.6-11.1
	s-2.8-23.2,21.9-26.1C105.6,100.3,110,123.9,102.5,133.7z"/>
<path class="st0" d="M85.7,92.3c-24.6,1.1-44.5,14.3-44.5,30.8c0,16.4,19.9,28.8,44.5,27.6c24.6-1.1,44.6-16.5,44.6-33
	C130.3,101.3,110.3,91.2,85.7,92.3L85.7,92.3z M102.5,133.7c-7.5,9.7-22.4,14.5-36.9,6.6c-6.9-3.7-6.6-11.1-6.6-11.1
	s-2.8-23.2,21.9-26.1C105.6,100.3,110,123.9,102.5,133.7z"/>
<path d="M85.9,118.1c-1.6,1.2-1.9,3.3-1,4.7c0.8,1.4,2.8,1.6,4.3,0.4c1.5-1.2,2.1-3.3,1.3-4.7C89.6,117.2,87.7,116.8,85.9,118.1z"/>
<path class="st0" d="M85.9,118.1c-1.6,1.2-1.9,3.3-1,4.7c0.8,1.4,2.8,1.6,4.3,0.4c1.5-1.2,2.1-3.3,1.3-4.7
	C89.6,117.2,87.7,116.8,85.9,118.1z M74.1,121.3c-4.6,0.5-7.9,4.5-7.9,8.4c0,3.9,3.7,6.5,8.4,6c4.6-0.5,8.4-4.1,8.4-7.9
	C82.9,123.9,79.5,120.8,74.1,121.3z"/>
<path class="st0" d="M74.1,121.3c-4.6,0.5-7.9,4.5-7.9,8.4c0,3.9,3.7,6.5,8.4,6c4.6-0.5,8.4-4.1,8.4-7.9
	C82.9,123.9,79.5,120.8,74.1,121.3z"/>
<path d="M160.8,12.6H39.2c-14.7,0-26.6,11.9-26.6,26.6v121.6c0,14.7,11.9,26.6,26.6,26.6h121.6c14.7,0,26.6-11.9,26.6-26.6V39.2
	C187.4,24.5,175.5,12.6,160.8,12.6L160.8,12.6z M152.3,128.6c-10.1,21.6-43.6,32-68.4,30.1c-23.6-1.9-53.9-9.7-57-38.2
	c0,0-1.7-12.9,10.9-29.6c0,0,18-25.2,39-32.3c21-7.1,23.4,4.9,23.4,12.1c-1.1,6-3.2,9.6,4.7,7.2c0,0,20.6-9.6,29.1-1.1
	c6.9,6.9,1.1,16.3,1.1,16.3c0,0-2.8,3.2,3,4.3C144,98.5,162.4,107,152.3,128.6L152.3,128.6z M131.9,69.1c-2.2,0-4.1-1.8-4.1-4
	c0-2.3,1.8-4.1,4.1-4.1c0,0,25.3-4.7,22.3,22.5c0,0.2,0,0.3,0,0.4c-0.3,1.9-2,3.4-4,3.4c-2.2,0-4.1-1.8-4.1-4.1
	C146.1,83.2,150.1,65.1,131.9,69.1L131.9,69.1z M174.7,90.8L174.7,90.8c-0.7,4.6-3,5-5.7,5c-3.2,0-5.9-2-5.9-5.3
	c0-2.8,1.2-5.7,1.2-5.7c0.4-1.2,3.1-8.5-1.8-19.6c-9-15.1-27.1-15.3-29.2-14.5c-2.1,0.8-5.3,1.3-5.3,1.3c-3.3,0-5.9-2.7-5.9-5.9
	c0-2.7,1.8-5,4.3-5.7c0,0,0.1-0.1,0.1-0.1c0.2,0,0.4-0.2,0.6-0.2c2.5-0.5,11.5-2.2,20.3-0.2C162.9,43.5,184.4,58.6,174.7,90.8z"/>
<path class="st0" d="M163,0H41.2C26.5,0,0,24.2,0,38.8V159c0,14.7,20.3,41,35,41h125c14.7,0,40-21.3,40-36V38.8
	C200,24.1,177.7,0,163,0L163,0z M152.3,128.6c-10.1,21.6-43.6,32-68.4,30.1c-23.6-1.9-53.9-9.7-57-38.2c0,0-1.7-12.9,10.9-29.6
	c0,0,18-25.2,39-32.3c21-7.1,23.4,4.9,23.4,12.1c-1.1,6-3.2,9.6,4.7,7.2c0,0,20.6-9.6,29.1-1.1c6.9,6.9,1.1,16.3,1.1,16.3
	c0,0-2.8,3.2,3,4.3C144,98.5,162.4,107,152.3,128.6L152.3,128.6z M131.9,69.1c-2.2,0-4.1-1.8-4.1-4c0-2.3,1.8-4.1,4.1-4.1
	c0,0,25.3-4.7,22.3,22.5c0,0.2,0,0.3,0,0.4c-0.3,1.9-2,3.4-4,3.4c-2.2,0-4.1-1.8-4.1-4.1C146.1,83.2,150.1,65.1,131.9,69.1
	L131.9,69.1z M174.7,90.8L174.7,90.8c-0.7,4.6-3,5-5.7,5c-3.2,0-5.9-2-5.9-5.3c0-2.8,1.2-5.7,1.2-5.7c0.4-1.2,3.1-8.5-1.8-19.6
	c-9-15.1-27.1-15.3-29.2-14.5c-2.1,0.8-5.3,1.3-5.3,1.3c-3.3,0-5.9-2.7-5.9-5.9c0-2.7,1.8-5,4.3-5.7c0,0,0.1-0.1,0.1-0.1
	c0.2,0,0.4-0.2,0.6-0.2c2.5-0.5,11.5-2.2,20.3-0.2C162.9,43.5,184.4,58.6,174.7,90.8z"/>
</svg>
