<?xml version="1.0" encoding="utf-8"?>
<!-- Generator: Adobe Illustrator 23.1.0, SVG Export Plug-In . SVG Version: 6.00 Build 0)  -->
<svg version="1.1" id="图层_1" xmlns="http://www.w3.org/2000/svg" xmlns:xlink="http://www.w3.org/1999/xlink" x="0px" y="0px"
	 viewBox="0 0 200 200" style="enable-background:new 0 0 200 200;" xml:space="preserve">
<style type="text/css">
	.st0{fill:#FFFFFF;}
</style>
<path class="st0" d="M90,10c44.2,0,80,35.8,80,80c0,17.8-5.9,35.1-16.9,49.2c0.5,0.3,0.9,0.7,1.3,1.1l39.5,39.5
	c3.8,4,3.7,10.3-0.2,14.1c-3.9,3.7-10,3.7-13.9,0l-39.5-39.5c-0.4-0.4-0.8-0.8-1.1-1.3c-34.8,27.2-85.1,20.9-112.3-13.9
	S5.9,54.1,40.8,26.9C54.9,15.9,72.2,10,90,10z M90,30c-33.1,0-60,26.8-60,60c0,33.1,26.8,60,60,60c0,0,0,0,0,0c33.1,0,60-26.9,60-60
	C150,56.9,123.1,30,90,30z"/>
</svg>
